<svg width="25" height="25" viewBox="0 0 25 25" fill="none" xmlns="http://www.w3.org/2000/svg">
<path d="M16.8695 5.2747L20.5636 7.40157C20.8542 7.57017 21.0955 7.8121 21.2634 8.10318C21.4313 8.39426 21.5198 8.7243 21.5202 9.06032V12.7679C21.518 12.9808 21.4735 13.1911 21.3894 13.3867C21.3053 13.5823 21.1831 13.7592 21.0301 13.9072C20.877 14.0552 20.6961 14.1714 20.4978 14.2489C20.2995 14.3264 20.0878 14.3638 19.875 14.3588H19.858C17.6396 14.3588 14.7868 15.217 14.6884 18.3853C14.5866 21.3398 17.6396 22.4117 19.858 22.4117C22.0765 22.4117 24.4984 20.7326 24.4984 18.5108V6.76385C24.4994 6.43133 24.4135 6.10432 24.2493 5.81518C24.0851 5.52603 23.8483 5.28478 23.5622 5.11527L16.8967 1.15326C16.6015 0.980011 16.2654 0.888672 15.9231 0.888672C15.5809 0.888672 15.2448 0.980011 14.9496 1.15326L8.29424 5.04064C8.00597 5.21023 7.767 5.45218 7.60101 5.74253C7.43501 6.03288 7.34774 6.36155 7.34783 6.696V14.7252C7.34567 14.9394 7.30081 15.151 7.21588 15.3477C7.13095 15.5444 7.00765 15.7221 6.85319 15.8706C6.69874 16.019 6.51623 16.1352 6.31635 16.2123C6.11646 16.2894 5.90322 16.3258 5.68908 16.3195H5.67212C3.44688 16.3195 0.600884 17.1811 0.502512 20.3527C0.410925 23.3073 3.44688 24.3792 5.67212 24.3792C7.89736 24.3792 10.3126 22.6967 10.3126 20.4714V9.01283C10.3125 8.67294 10.4029 8.33917 10.5746 8.04584C10.7463 7.75252 10.9931 7.51023 11.2895 7.3439L14.9733 5.26452C15.2629 5.10096 15.5902 5.01586 15.9228 5.01764C16.2554 5.01943 16.5817 5.10804 16.8695 5.2747V5.2747Z" fill="#3A3A3A"/>
<path d="M22.7277 3.26673V0.929551C22.7277 0.872874 22.7052 0.818517 22.6651 0.77844C22.625 0.738362 22.5707 0.715847 22.514 0.715847H19.9529C19.9246 0.715397 19.8964 0.720593 19.8701 0.731131C19.8438 0.741669 19.8198 0.757338 19.7996 0.777228C19.7794 0.797117 19.7634 0.820828 19.7524 0.846979C19.7415 0.873131 19.7358 0.9012 19.7358 0.929551V1.84203C19.7355 1.88088 19.7457 1.9191 19.7654 1.95257C19.7852 1.98604 19.8136 2.0135 19.8478 2.03199L22.4156 3.45669C22.4482 3.47359 22.4846 3.48181 22.5213 3.48055C22.558 3.4793 22.5938 3.46861 22.6251 3.44952C22.6565 3.43043 22.6824 3.40358 22.7004 3.37157C22.7183 3.33955 22.7278 3.30344 22.7277 3.26673V3.26673Z" fill="#3A3A3A"/>
<path d="M15.5529 8.23291H14.3487C14.2119 8.23291 14.1011 8.34378 14.1011 8.48054V9.60672C14.1011 9.74348 14.2119 9.85435 14.3487 9.85435H15.5529C15.6897 9.85435 15.8005 9.74348 15.8005 9.60672V8.48054C15.8005 8.34378 15.6897 8.23291 15.5529 8.23291Z" fill="#3A3A3A"/>
<path d="M17.5949 8.23291H16.3907C16.2539 8.23291 16.1431 8.34378 16.1431 8.48054V9.60672C16.1431 9.74348 16.2539 9.85435 16.3907 9.85435H17.5949C17.7317 9.85435 17.8425 9.74348 17.8425 9.60672V8.48054C17.8425 8.34378 17.7317 8.23291 17.5949 8.23291Z" fill="#3A3A3A"/>
<path d="M15.5529 10.1934H14.3487C14.2119 10.1934 14.1011 10.3042 14.1011 10.441V11.5672C14.1011 11.7039 14.2119 11.8148 14.3487 11.8148H15.5529C15.6897 11.8148 15.8005 11.7039 15.8005 11.5672V10.441C15.8005 10.3042 15.6897 10.1934 15.5529 10.1934Z" fill="#3A3A3A"/>
<path d="M17.5949 10.1934H16.3907C16.2539 10.1934 16.1431 10.3042 16.1431 10.441V11.5672C16.1431 11.7039 16.2539 11.8148 16.3907 11.8148H17.5949C17.7317 11.8148 17.8425 11.7039 17.8425 11.5672V10.441C17.8425 10.3042 17.7317 10.1934 17.5949 10.1934Z" fill="#3A3A3A"/>
</svg>
