<svg width="35" height="77" viewBox="0 0 35 77" fill="none" xmlns="http://www.w3.org/2000/svg">
<path d="M22.2694 64.8357H12.7313C12.0791 64.8357 11.5503 65.3645 11.5503 66.0167V66.5979C11.5503 67.2501 12.0791 67.7789 12.7313 67.7789H22.2694C22.9216 67.7789 23.4504 67.2501 23.4504 66.5979V66.0167C23.4504 65.3645 22.9216 64.8357 22.2694 64.8357Z" fill="#3A3A3A"/>
<path d="M31.8411 55.6726L31.7691 55.5527C30.6686 53.7182 29.6298 51.9847 29.5046 50.0326C29.5044 50.0236 29.5051 50.0149 29.5048 50.006C29.4419 48.5652 29.962 47.1749 30.5127 45.7029C30.8802 44.7206 31.2603 43.7047 31.4833 42.624C31.819 40.9977 31.8039 39.5177 31.4384 38.2252C31.1942 37.3617 30.5458 35.0676 28.4323 35.0676C26.2522 35.0676 25.8028 37.1239 25.6108 38.0019C25.2869 39.4842 24.8219 40.1499 24.489 40.4474C23.9798 40.9024 23.0767 40.9177 22.5843 40.8857C21.8085 40.8361 21.2353 40.6492 20.9529 40.3601V15.1514C20.9529 15.1453 20.9521 15.1393 20.9519 15.1332V13.7119C20.973 13.6083 21.0528 13.5439 21.1194 13.5191C21.5416 13.3633 21.8384 12.9808 21.8847 12.5329L22.8147 3.5469C22.864 3.07183 22.6221 2.61408 22.2022 2.3867L18.1046 0.168961C17.9209 0.0590506 17.7103 -0.000313683 17.4957 1.24659e-06C17.2811 -0.000313683 17.0706 0.0590506 16.8868 0.168961L12.7889 2.38654C12.369 2.61392 12.1271 3.07183 12.1764 3.54674L13.1064 12.5328C13.1527 12.9806 13.4495 13.3629 13.8717 13.519C13.9383 13.5436 14.0181 13.608 14.0392 13.7117V16.1143C14.0392 16.159 14.0422 16.203 14.0471 16.2464V36.4463C13.0675 36.8688 12.2416 36.5953 11.9925 36.4909C10.6641 35.934 9.74828 34.4821 9.54279 32.6077C9.52988 32.4883 9.51996 32.3354 9.50941 32.1732C9.44391 31.159 9.29053 28.7835 7.06603 28.6928C5.75025 28.6392 3.4593 29.3439 2.88691 34.6506C2.50852 38.1734 3.45489 41.0791 4.45684 44.1555C4.62281 44.6649 4.79035 45.1795 4.95348 45.7028C5.39753 47.1281 5.61798 48.2981 5.6468 49.3852C5.65247 49.595 5.65042 49.8041 5.64129 50.0069C5.64113 50.0083 5.64129 50.0097 5.64129 50.011C5.52209 51.9716 4.4792 53.7111 3.37474 55.5522L3.30262 55.6726C1.83458 58.1206 0.170802 60.8951 0.162141 64.2768C0.155213 66.9633 1.27022 69.9298 3.00296 71.835C6.88605 76.1039 13.0299 77 17.5 77C21.9701 77 28.1137 76.104 31.997 71.835C33.7297 69.93 34.8449 66.9633 34.8379 64.277C34.8294 60.9343 33.3527 58.1933 31.8411 55.6726ZM18.591 16.3324V47.9503H16.4092V16.3324H18.591ZM17.4957 2.52511L20.3844 4.08842L19.5969 11.6965C19.0305 12.1394 18.6572 12.8055 18.5943 13.5406C18.5915 13.5741 18.5901 13.6076 18.5901 13.6412V13.9704H16.4013V13.6412C16.4013 13.6076 16.3999 13.5741 16.3971 13.5406C16.3344 12.8055 15.9609 12.1393 15.3945 11.6965L14.607 4.08842L17.4957 2.52511ZM30.2499 70.2457C28.4271 72.2496 24.7355 74.6382 17.5001 74.6382C10.2648 74.6382 6.57316 72.2496 4.75035 70.2457C3.41332 68.7758 2.51876 66.3796 2.52427 64.2831C2.5312 61.5521 3.95327 59.1808 5.32841 56.8875L5.40037 56.7675C6.60686 54.7562 7.85445 52.6766 8.00137 50.1271C8.002 50.1151 8.00121 50.1034 8.00153 50.0913C8.01239 49.8392 8.01491 49.5811 8.00814 49.3226C7.97334 48.0123 7.71935 46.6387 7.20869 45.0001C7.04178 44.4649 6.86951 43.9358 6.70291 43.4242C5.74159 40.4722 4.91128 37.9227 5.2355 34.9034C5.4432 32.9783 6.05164 31.0524 6.94573 31.0524C6.9484 31.0524 6.95124 31.0524 6.95391 31.0524C7.08571 31.2913 7.13201 32.0082 7.15248 32.3255C7.16476 32.5143 7.17625 32.6927 7.19499 32.8645C7.49543 35.6055 8.94742 37.7755 11.0792 38.6691C12.0084 39.059 13.0484 39.1354 14.0474 38.9148V49.1312C14.0474 49.7836 14.5762 50.3122 15.2284 50.3122H19.7722C20.4244 50.3122 20.9532 49.7836 20.9532 49.1312V42.9909C21.3955 43.1236 21.889 43.2084 22.4336 43.2433C23.9423 43.3397 25.1975 42.9822 26.0629 42.2091C26.9379 41.4273 27.545 40.2162 27.9186 38.5065C28.1539 37.4299 28.283 37.4299 28.4324 37.4299C28.5091 37.4299 28.7885 37.5336 29.1657 38.8682C29.427 39.7922 29.4286 40.8954 29.1702 42.1467C28.984 43.0485 28.6521 43.9358 28.3005 44.8754C27.7029 46.4724 27.0872 48.1235 27.1426 49.9984C27.1404 50.0409 27.1403 50.0836 27.1426 50.1269C27.2892 52.6766 28.5368 54.7564 29.7435 56.7678L29.8153 56.8873C31.2134 59.2188 32.469 61.5387 32.476 64.2831C32.4815 66.3796 31.5868 68.7759 30.2499 70.2457Z" fill="#3A3A3A"/>
<path d="M14.6474 55.3591L20.3531 55.3589C21.1439 55.3589 21.7872 54.7155 21.7872 53.9248C21.7872 53.1341 21.1439 52.4907 20.3531 52.4907H14.6474C13.8566 52.4907 13.2134 53.1341 13.2134 53.9249C13.2134 54.7157 13.8568 55.3591 14.6474 55.3591Z" fill="#3A3A3A"/>
<path d="M14.6474 59.4918L20.3531 59.4916C21.1439 59.4916 21.7872 58.8482 21.7872 58.0574C21.7872 57.2666 21.1439 56.6235 20.3531 56.6235H14.6474C13.8566 56.6235 13.2134 57.2669 13.2134 58.0577C13.2134 58.8484 13.8568 59.4918 14.6474 59.4918Z" fill="#3A3A3A"/>
</svg>
