<svg width="403" height="255" viewBox="0 0 403 255" fill="none" xmlns="http://www.w3.org/2000/svg">
<mask id="mask0" mask-type="alpha" maskUnits="userSpaceOnUse" x="0" y="0" width="403" height="255">
<rect width="403" height="255" rx="10" fill="#F9F9F9"/>
</mask>
<g mask="url(#mask0)">
<path opacity="0.03" d="M303 44.3486C303 42.1514 303.716 40.3773 305.148 39.0264C306.581 37.6755 308.501 37 310.91 37C313.352 37 315.28 37.6755 316.696 39.0264C318.112 40.361 318.82 42.1758 318.82 44.4707V46.2285C318.82 48.4258 318.112 50.1917 316.696 51.5264C315.28 52.861 313.368 53.5283 310.959 53.5283C308.566 53.5283 306.638 52.8691 305.173 51.5508C303.724 50.2161 303 48.3932 303 46.082V44.3486ZM308.298 46.2285C308.298 47.0749 308.534 47.7666 309.006 48.3037C309.478 48.8245 310.129 49.085 310.959 49.085C312.668 49.085 313.522 47.9945 313.522 45.8135V44.3486C313.522 43.5023 313.295 42.8105 312.839 42.2734C312.383 41.7201 311.74 41.4434 310.91 41.4434C310.113 41.4434 309.478 41.7119 309.006 42.249C308.534 42.7699 308.298 43.486 308.298 44.3975V46.2285ZM319.895 64.3438C319.895 62.1302 320.611 60.3561 322.043 59.0215C323.492 57.6868 325.412 57.0195 327.805 57.0195C330.23 57.0195 332.159 57.6787 333.591 58.9971C335.023 60.3154 335.739 62.1546 335.739 64.5146V66.2236C335.739 68.4372 335.031 70.2113 333.615 71.5459C332.199 72.8805 330.279 73.5479 327.854 73.5479C325.461 73.5479 323.532 72.8887 322.067 71.5703C320.619 70.2357 319.895 68.4128 319.895 66.1016V64.3438ZM325.168 66.2236C325.168 66.9886 325.428 67.6641 325.949 68.25C326.47 68.8197 327.105 69.1045 327.854 69.1045C329.432 69.1045 330.287 68.3558 330.417 66.8584L330.441 64.3438C330.441 63.4811 330.205 62.7894 329.733 62.2686C329.261 61.7314 328.618 61.4629 327.805 61.4629C327.023 61.4629 326.397 61.7152 325.925 62.2197C325.453 62.708 325.201 63.3753 325.168 64.2217V66.2236ZM312.521 70.3984L308.688 68.4697L326.047 40.6865L329.88 42.6152L312.521 70.3984Z" fill="black"/>
<path opacity="0.03" d="M269 109.349C269 107.151 269.716 105.377 271.148 104.026C272.581 102.675 274.501 102 276.91 102C279.352 102 281.28 102.675 282.696 104.026C284.112 105.361 284.82 107.176 284.82 109.471V111.229C284.82 113.426 284.112 115.192 282.696 116.526C281.28 117.861 279.368 118.528 276.959 118.528C274.566 118.528 272.638 117.869 271.173 116.551C269.724 115.216 269 113.393 269 111.082V109.349ZM274.298 111.229C274.298 112.075 274.534 112.767 275.006 113.304C275.478 113.825 276.129 114.085 276.959 114.085C278.668 114.085 279.522 112.994 279.522 110.813V109.349C279.522 108.502 279.295 107.811 278.839 107.273C278.383 106.72 277.74 106.443 276.91 106.443C276.113 106.443 275.478 106.712 275.006 107.249C274.534 107.77 274.298 108.486 274.298 109.397V111.229ZM285.895 129.344C285.895 127.13 286.611 125.356 288.043 124.021C289.492 122.687 291.412 122.02 293.805 122.02C296.23 122.02 298.159 122.679 299.591 123.997C301.023 125.315 301.739 127.155 301.739 129.515V131.224C301.739 133.437 301.031 135.211 299.615 136.546C298.199 137.881 296.279 138.548 293.854 138.548C291.461 138.548 289.532 137.889 288.067 136.57C286.619 135.236 285.895 133.413 285.895 131.102V129.344ZM291.168 131.224C291.168 131.989 291.428 132.664 291.949 133.25C292.47 133.82 293.105 134.104 293.854 134.104C295.432 134.104 296.287 133.356 296.417 131.858L296.441 129.344C296.441 128.481 296.205 127.789 295.733 127.269C295.261 126.731 294.618 126.463 293.805 126.463C293.023 126.463 292.397 126.715 291.925 127.22C291.453 127.708 291.201 128.375 291.168 129.222V131.224ZM278.521 135.398L274.688 133.47L292.047 105.687L295.88 107.615L278.521 135.398Z" fill="black"/>
<path opacity="0.03" d="M269 109.349C269 107.151 269.716 105.377 271.148 104.026C272.581 102.675 274.501 102 276.91 102C279.352 102 281.28 102.675 282.696 104.026C284.112 105.361 284.82 107.176 284.82 109.471V111.229C284.82 113.426 284.112 115.192 282.696 116.526C281.28 117.861 279.368 118.528 276.959 118.528C274.566 118.528 272.638 117.869 271.173 116.551C269.724 115.216 269 113.393 269 111.082V109.349ZM274.298 111.229C274.298 112.075 274.534 112.767 275.006 113.304C275.478 113.825 276.129 114.085 276.959 114.085C278.668 114.085 279.522 112.994 279.522 110.813V109.349C279.522 108.502 279.295 107.811 278.839 107.273C278.383 106.72 277.74 106.443 276.91 106.443C276.113 106.443 275.478 106.712 275.006 107.249C274.534 107.77 274.298 108.486 274.298 109.397V111.229ZM285.895 129.344C285.895 127.13 286.611 125.356 288.043 124.021C289.492 122.687 291.412 122.02 293.805 122.02C296.23 122.02 298.159 122.679 299.591 123.997C301.023 125.315 301.739 127.155 301.739 129.515V131.224C301.739 133.437 301.031 135.211 299.615 136.546C298.199 137.881 296.279 138.548 293.854 138.548C291.461 138.548 289.532 137.889 288.067 136.57C286.619 135.236 285.895 133.413 285.895 131.102V129.344ZM291.168 131.224C291.168 131.989 291.428 132.664 291.949 133.25C292.47 133.82 293.105 134.104 293.854 134.104C295.432 134.104 296.287 133.356 296.417 131.858L296.441 129.344C296.441 128.481 296.205 127.789 295.733 127.269C295.261 126.731 294.618 126.463 293.805 126.463C293.023 126.463 292.397 126.715 291.925 127.22C291.453 127.708 291.201 128.375 291.168 129.222V131.224ZM278.521 135.398L274.688 133.47L292.047 105.687L295.88 107.615L278.521 135.398Z" fill="black"/>
<path opacity="0.03" d="M346 140.349C346 138.151 346.716 136.377 348.148 135.026C349.581 133.675 351.501 133 353.91 133C356.352 133 358.28 133.675 359.696 135.026C361.112 136.361 361.82 138.176 361.82 140.471V142.229C361.82 144.426 361.112 146.192 359.696 147.526C358.28 148.861 356.368 149.528 353.959 149.528C351.566 149.528 349.638 148.869 348.173 147.551C346.724 146.216 346 144.393 346 142.082V140.349ZM351.298 142.229C351.298 143.075 351.534 143.767 352.006 144.304C352.478 144.825 353.129 145.085 353.959 145.085C355.668 145.085 356.522 143.994 356.522 141.813V140.349C356.522 139.502 356.295 138.811 355.839 138.273C355.383 137.72 354.74 137.443 353.91 137.443C353.113 137.443 352.478 137.712 352.006 138.249C351.534 138.77 351.298 139.486 351.298 140.397V142.229ZM362.895 160.344C362.895 158.13 363.611 156.356 365.043 155.021C366.492 153.687 368.412 153.02 370.805 153.02C373.23 153.02 375.159 153.679 376.591 154.997C378.023 156.315 378.739 158.155 378.739 160.515V162.224C378.739 164.437 378.031 166.211 376.615 167.546C375.199 168.881 373.279 169.548 370.854 169.548C368.461 169.548 366.532 168.889 365.067 167.57C363.619 166.236 362.895 164.413 362.895 162.102V160.344ZM368.168 162.224C368.168 162.989 368.428 163.664 368.949 164.25C369.47 164.82 370.105 165.104 370.854 165.104C372.432 165.104 373.287 164.356 373.417 162.858L373.441 160.344C373.441 159.481 373.205 158.789 372.733 158.269C372.261 157.731 371.618 157.463 370.805 157.463C370.023 157.463 369.397 157.715 368.925 158.22C368.453 158.708 368.201 159.375 368.168 160.222V162.224ZM355.521 166.398L351.688 164.47L369.047 136.687L372.88 138.615L355.521 166.398Z" fill="black"/>
<path opacity="0.03" d="M215 224.349C215 222.151 215.716 220.377 217.148 219.026C218.581 217.675 220.501 217 222.91 217C225.352 217 227.28 217.675 228.696 219.026C230.112 220.361 230.82 222.176 230.82 224.471V226.229C230.82 228.426 230.112 230.192 228.696 231.526C227.28 232.861 225.368 233.528 222.959 233.528C220.566 233.528 218.638 232.869 217.173 231.551C215.724 230.216 215 228.393 215 226.082V224.349ZM220.298 226.229C220.298 227.075 220.534 227.767 221.006 228.304C221.478 228.825 222.129 229.085 222.959 229.085C224.668 229.085 225.522 227.994 225.522 225.813V224.349C225.522 223.502 225.295 222.811 224.839 222.273C224.383 221.72 223.74 221.443 222.91 221.443C222.113 221.443 221.478 221.712 221.006 222.249C220.534 222.77 220.298 223.486 220.298 224.397V226.229ZM231.895 244.344C231.895 242.13 232.611 240.356 234.043 239.021C235.492 237.687 237.412 237.02 239.805 237.02C242.23 237.02 244.159 237.679 245.591 238.997C247.023 240.315 247.739 242.155 247.739 244.515V246.224C247.739 248.437 247.031 250.211 245.615 251.546C244.199 252.881 242.279 253.548 239.854 253.548C237.461 253.548 235.532 252.889 234.067 251.57C232.619 250.236 231.895 248.413 231.895 246.102V244.344ZM237.168 246.224C237.168 246.989 237.428 247.664 237.949 248.25C238.47 248.82 239.105 249.104 239.854 249.104C241.432 249.104 242.287 248.356 242.417 246.858L242.441 244.344C242.441 243.481 242.205 242.789 241.733 242.269C241.261 241.731 240.618 241.463 239.805 241.463C239.023 241.463 238.397 241.715 237.925 242.22C237.453 242.708 237.201 243.375 237.168 244.222V246.224ZM224.521 250.398L220.688 248.47L238.047 220.687L241.88 222.615L224.521 250.398Z" fill="black"/>
<path opacity="0.03" d="M318 212.349C318 210.151 318.716 208.377 320.148 207.026C321.581 205.675 323.501 205 325.91 205C328.352 205 330.28 205.675 331.696 207.026C333.112 208.361 333.82 210.176 333.82 212.471V214.229C333.82 216.426 333.112 218.192 331.696 219.526C330.28 220.861 328.368 221.528 325.959 221.528C323.566 221.528 321.638 220.869 320.173 219.551C318.724 218.216 318 216.393 318 214.082V212.349ZM323.298 214.229C323.298 215.075 323.534 215.767 324.006 216.304C324.478 216.825 325.129 217.085 325.959 217.085C327.668 217.085 328.522 215.994 328.522 213.813V212.349C328.522 211.502 328.295 210.811 327.839 210.273C327.383 209.72 326.74 209.443 325.91 209.443C325.113 209.443 324.478 209.712 324.006 210.249C323.534 210.77 323.298 211.486 323.298 212.397V214.229ZM334.895 232.344C334.895 230.13 335.611 228.356 337.043 227.021C338.492 225.687 340.412 225.02 342.805 225.02C345.23 225.02 347.159 225.679 348.591 226.997C350.023 228.315 350.739 230.155 350.739 232.515V234.224C350.739 236.437 350.031 238.211 348.615 239.546C347.199 240.881 345.279 241.548 342.854 241.548C340.461 241.548 338.532 240.889 337.067 239.57C335.619 238.236 334.895 236.413 334.895 234.102V232.344ZM340.168 234.224C340.168 234.989 340.428 235.664 340.949 236.25C341.47 236.82 342.105 237.104 342.854 237.104C344.432 237.104 345.287 236.356 345.417 234.858L345.441 232.344C345.441 231.481 345.205 230.789 344.733 230.269C344.261 229.731 343.618 229.463 342.805 229.463C342.023 229.463 341.397 229.715 340.925 230.22C340.453 230.708 340.201 231.375 340.168 232.222V234.224ZM327.521 238.398L323.688 236.47L341.047 208.687L344.88 210.615L327.521 238.398Z" fill="black"/>
<path opacity="0.03" d="M230 2.34863C230 0.151367 230.716 -1.62272 232.148 -2.97363C233.581 -4.32454 235.501 -5 237.91 -5C240.352 -5 242.28 -4.32454 243.696 -2.97363C245.112 -1.639 245.82 0.175781 245.82 2.4707V4.22852C245.82 6.42578 245.112 8.19173 243.696 9.52637C242.28 10.861 240.368 11.5283 237.959 11.5283C235.566 11.5283 233.638 10.8691 232.173 9.55078C230.724 8.21615 230 6.39323 230 4.08203V2.34863ZM235.298 4.22852C235.298 5.07487 235.534 5.7666 236.006 6.30371C236.478 6.82454 237.129 7.08496 237.959 7.08496C239.668 7.08496 240.522 5.99447 240.522 3.81348V2.34863C240.522 1.50228 240.295 0.810547 239.839 0.273438C239.383 -0.279948 238.74 -0.556641 237.91 -0.556641C237.113 -0.556641 236.478 -0.288086 236.006 0.249023C235.534 0.769857 235.298 1.486 235.298 2.39746V4.22852ZM246.895 22.3438C246.895 20.1302 247.611 18.3561 249.043 17.0215C250.492 15.6868 252.412 15.0195 254.805 15.0195C257.23 15.0195 259.159 15.6787 260.591 16.9971C262.023 18.3154 262.739 20.1546 262.739 22.5146V24.2236C262.739 26.4372 262.031 28.2113 260.615 29.5459C259.199 30.8805 257.279 31.5479 254.854 31.5479C252.461 31.5479 250.532 30.8887 249.067 29.5703C247.619 28.2357 246.895 26.4128 246.895 24.1016V22.3438ZM252.168 24.2236C252.168 24.9886 252.428 25.6641 252.949 26.25C253.47 26.8197 254.105 27.1045 254.854 27.1045C256.432 27.1045 257.287 26.3558 257.417 24.8584L257.441 22.3438C257.441 21.4811 257.205 20.7894 256.733 20.2686C256.261 19.7314 255.618 19.4629 254.805 19.4629C254.023 19.4629 253.397 19.7152 252.925 20.2197C252.453 20.708 252.201 21.3753 252.168 22.2217V24.2236ZM239.521 28.3984L235.688 26.4697L253.047 -1.31348L256.88 0.615234L239.521 28.3984Z" fill="black"/>
<path opacity="0.03" d="M115 15.3486C115 13.1514 115.716 11.3773 117.148 10.0264C118.581 8.67546 120.501 8 122.91 8C125.352 8 127.28 8.67546 128.696 10.0264C130.112 11.361 130.82 13.1758 130.82 15.4707V17.2285C130.82 19.4258 130.112 21.1917 128.696 22.5264C127.28 23.861 125.368 24.5283 122.959 24.5283C120.566 24.5283 118.638 23.8691 117.173 22.5508C115.724 21.2161 115 19.3932 115 17.082V15.3486ZM120.298 17.2285C120.298 18.0749 120.534 18.7666 121.006 19.3037C121.478 19.8245 122.129 20.085 122.959 20.085C124.668 20.085 125.522 18.9945 125.522 16.8135V15.3486C125.522 14.5023 125.295 13.8105 124.839 13.2734C124.383 12.7201 123.74 12.4434 122.91 12.4434C122.113 12.4434 121.478 12.7119 121.006 13.249C120.534 13.7699 120.298 14.486 120.298 15.3975V17.2285ZM131.895 35.3438C131.895 33.1302 132.611 31.3561 134.043 30.0215C135.492 28.6868 137.412 28.0195 139.805 28.0195C142.23 28.0195 144.159 28.6787 145.591 29.9971C147.023 31.3154 147.739 33.1546 147.739 35.5146V37.2236C147.739 39.4372 147.031 41.2113 145.615 42.5459C144.199 43.8805 142.279 44.5479 139.854 44.5479C137.461 44.5479 135.532 43.8887 134.067 42.5703C132.619 41.2357 131.895 39.4128 131.895 37.1016V35.3438ZM137.168 37.2236C137.168 37.9886 137.428 38.6641 137.949 39.25C138.47 39.8197 139.105 40.1045 139.854 40.1045C141.432 40.1045 142.287 39.3558 142.417 37.8584L142.441 35.3438C142.441 34.4811 142.205 33.7894 141.733 33.2686C141.261 32.7314 140.618 32.4629 139.805 32.4629C139.023 32.4629 138.397 32.7152 137.925 33.2197C137.453 33.708 137.201 34.3753 137.168 35.2217V37.2236ZM124.521 41.3984L120.688 39.4697L138.047 11.6865L141.88 13.6152L124.521 41.3984Z" fill="black"/>
<path opacity="0.03" d="M42 31.3486C42 29.1514 42.7161 27.3773 44.1484 26.0264C45.5807 24.6755 47.5013 24 49.9102 24C52.3516 24 54.2803 24.6755 55.6963 26.0264C57.1123 27.361 57.8203 29.1758 57.8203 31.4707V33.2285C57.8203 35.4258 57.1123 37.1917 55.6963 38.5264C54.2803 39.861 52.3678 40.5283 49.959 40.5283C47.5664 40.5283 45.6377 39.8691 44.1729 38.5508C42.7243 37.2161 42 35.3932 42 33.082V31.3486ZM47.2979 33.2285C47.2979 34.0749 47.5339 34.7666 48.0059 35.3037C48.4779 35.8245 49.1289 36.085 49.959 36.085C51.668 36.085 52.5225 34.9945 52.5225 32.8135V31.3486C52.5225 30.5023 52.2946 29.8105 51.8389 29.2734C51.3831 28.7201 50.7402 28.4434 49.9102 28.4434C49.1126 28.4434 48.4779 28.7119 48.0059 29.249C47.5339 29.7699 47.2979 30.486 47.2979 31.3975V33.2285ZM58.8945 51.3438C58.8945 49.1302 59.6107 47.3561 61.043 46.0215C62.4915 44.6868 64.4121 44.0195 66.8047 44.0195C69.2298 44.0195 71.1585 44.6787 72.5908 45.9971C74.0231 47.3154 74.7393 49.1546 74.7393 51.5146V53.2236C74.7393 55.4372 74.0312 57.2113 72.6152 58.5459C71.1992 59.8805 69.2786 60.5479 66.8535 60.5479C64.4609 60.5479 62.5322 59.8887 61.0674 58.5703C59.6188 57.2357 58.8945 55.4128 58.8945 53.1016V51.3438ZM64.168 53.2236C64.168 53.9886 64.4284 54.6641 64.9492 55.25C65.4701 55.8197 66.1048 56.1045 66.8535 56.1045C68.4323 56.1045 69.2868 55.3558 69.417 53.8584L69.4414 51.3438C69.4414 50.4811 69.2054 49.7894 68.7334 49.2686C68.2614 48.7314 67.6185 48.4629 66.8047 48.4629C66.0234 48.4629 65.3968 48.7152 64.9248 49.2197C64.4528 49.708 64.2005 50.3753 64.168 51.2217V53.2236ZM51.5215 57.3984L47.6885 55.4697L65.0469 27.6865L68.8799 29.6152L51.5215 57.3984Z" fill="black"/>
<path opacity="0.03" d="M102 91.3486C102 89.1514 102.716 87.3773 104.148 86.0264C105.581 84.6755 107.501 84 109.91 84C112.352 84 114.28 84.6755 115.696 86.0264C117.112 87.361 117.82 89.1758 117.82 91.4707V93.2285C117.82 95.4258 117.112 97.1917 115.696 98.5264C114.28 99.861 112.368 100.528 109.959 100.528C107.566 100.528 105.638 99.8691 104.173 98.5508C102.724 97.2161 102 95.3932 102 93.082V91.3486ZM107.298 93.2285C107.298 94.0749 107.534 94.7666 108.006 95.3037C108.478 95.8245 109.129 96.085 109.959 96.085C111.668 96.085 112.522 94.9945 112.522 92.8135V91.3486C112.522 90.5023 112.295 89.8105 111.839 89.2734C111.383 88.7201 110.74 88.4434 109.91 88.4434C109.113 88.4434 108.478 88.7119 108.006 89.249C107.534 89.7699 107.298 90.486 107.298 91.3975V93.2285ZM118.895 111.344C118.895 109.13 119.611 107.356 121.043 106.021C122.492 104.687 124.412 104.02 126.805 104.02C129.23 104.02 131.159 104.679 132.591 105.997C134.023 107.315 134.739 109.155 134.739 111.515V113.224C134.739 115.437 134.031 117.211 132.615 118.546C131.199 119.881 129.279 120.548 126.854 120.548C124.461 120.548 122.532 119.889 121.067 118.57C119.619 117.236 118.895 115.413 118.895 113.102V111.344ZM124.168 113.224C124.168 113.989 124.428 114.664 124.949 115.25C125.47 115.82 126.105 116.104 126.854 116.104C128.432 116.104 129.287 115.356 129.417 113.858L129.441 111.344C129.441 110.481 129.205 109.789 128.733 109.269C128.261 108.731 127.618 108.463 126.805 108.463C126.023 108.463 125.397 108.715 124.925 109.22C124.453 109.708 124.201 110.375 124.168 111.222V113.224ZM111.521 117.398L107.688 115.47L125.047 87.6865L128.88 89.6152L111.521 117.398Z" fill="black"/>
<path opacity="0.03" d="M53 165.349C53 163.151 53.7161 161.377 55.1484 160.026C56.5807 158.675 58.5013 158 60.9102 158C63.3516 158 65.2803 158.675 66.6963 160.026C68.1123 161.361 68.8203 163.176 68.8203 165.471V167.229C68.8203 169.426 68.1123 171.192 66.6963 172.526C65.2803 173.861 63.3678 174.528 60.959 174.528C58.5664 174.528 56.6377 173.869 55.1729 172.551C53.7243 171.216 53 169.393 53 167.082V165.349ZM58.2979 167.229C58.2979 168.075 58.5339 168.767 59.0059 169.304C59.4779 169.825 60.1289 170.085 60.959 170.085C62.668 170.085 63.5225 168.994 63.5225 166.813V165.349C63.5225 164.502 63.2946 163.811 62.8389 163.273C62.3831 162.72 61.7402 162.443 60.9102 162.443C60.1126 162.443 59.4779 162.712 59.0059 163.249C58.5339 163.77 58.2979 164.486 58.2979 165.397V167.229ZM69.8945 185.344C69.8945 183.13 70.6107 181.356 72.043 180.021C73.4915 178.687 75.4121 178.02 77.8047 178.02C80.2298 178.02 82.1585 178.679 83.5908 179.997C85.0231 181.315 85.7393 183.155 85.7393 185.515V187.224C85.7393 189.437 85.0312 191.211 83.6152 192.546C82.1992 193.881 80.2786 194.548 77.8535 194.548C75.4609 194.548 73.5322 193.889 72.0674 192.57C70.6188 191.236 69.8945 189.413 69.8945 187.102V185.344ZM75.168 187.224C75.168 187.989 75.4284 188.664 75.9492 189.25C76.4701 189.82 77.1048 190.104 77.8535 190.104C79.4323 190.104 80.2868 189.356 80.417 187.858L80.4414 185.344C80.4414 184.481 80.2054 183.789 79.7334 183.269C79.2614 182.731 78.6185 182.463 77.8047 182.463C77.0234 182.463 76.3968 182.715 75.9248 183.22C75.4528 183.708 75.2005 184.375 75.168 185.222V187.224ZM62.5215 191.398L58.6885 189.47L76.0469 161.687L79.8799 163.615L62.5215 191.398Z" fill="black"/>
<path opacity="0.03" d="M101 244.349C101 242.151 101.716 240.377 103.148 239.026C104.581 237.675 106.501 237 108.91 237C111.352 237 113.28 237.675 114.696 239.026C116.112 240.361 116.82 242.176 116.82 244.471V246.229C116.82 248.426 116.112 250.192 114.696 251.526C113.28 252.861 111.368 253.528 108.959 253.528C106.566 253.528 104.638 252.869 103.173 251.551C101.724 250.216 101 248.393 101 246.082V244.349ZM106.298 246.229C106.298 247.075 106.534 247.767 107.006 248.304C107.478 248.825 108.129 249.085 108.959 249.085C110.668 249.085 111.522 247.994 111.522 245.813V244.349C111.522 243.502 111.295 242.811 110.839 242.273C110.383 241.72 109.74 241.443 108.91 241.443C108.113 241.443 107.478 241.712 107.006 242.249C106.534 242.77 106.298 243.486 106.298 244.397V246.229ZM117.895 264.344C117.895 262.13 118.611 260.356 120.043 259.021C121.492 257.687 123.412 257.02 125.805 257.02C128.23 257.02 130.159 257.679 131.591 258.997C133.023 260.315 133.739 262.155 133.739 264.515V266.224C133.739 268.437 133.031 270.211 131.615 271.546C130.199 272.881 128.279 273.548 125.854 273.548C123.461 273.548 121.532 272.889 120.067 271.57C118.619 270.236 117.895 268.413 117.895 266.102V264.344ZM123.168 266.224C123.168 266.989 123.428 267.664 123.949 268.25C124.47 268.82 125.105 269.104 125.854 269.104C127.432 269.104 128.287 268.356 128.417 266.858L128.441 264.344C128.441 263.481 128.205 262.789 127.733 262.269C127.261 261.731 126.618 261.463 125.805 261.463C125.023 261.463 124.397 261.715 123.925 262.22C123.453 262.708 123.201 263.375 123.168 264.222V266.224ZM110.521 270.398L106.688 268.47L124.047 240.687L127.88 242.615L110.521 270.398Z" fill="black"/>
</g>
</svg>
