<svg width="123" height="65" viewBox="0 0 123 65" fill="none" xmlns="http://www.w3.org/2000/svg">
<path d="M122.146 33.9713C122.146 23.9716 114.011 15.8364 104.011 15.8364H48.8163C46.9786 15.8364 45.4834 14.3412 45.4834 12.5034C45.4834 10.6657 46.9786 9.17054 48.8163 9.17054C51.3447 9.17054 53.4016 7.1137 53.4016 4.58527C53.4016 2.05683 51.3447 0 48.8163 0C41.9219 0 36.3129 5.60907 36.3129 12.5034C36.3129 19.3978 41.9219 25.0069 48.8163 25.0069H104.011C108.955 25.0069 112.976 29.0285 112.976 33.9713C112.976 38.2786 109.922 41.8853 105.866 42.7419V34.3414C105.866 31.7648 103.77 29.6685 101.193 29.6685H4.6726C2.09626 29.6685 0 31.7648 0 34.3414V60.3271C0 62.9037 2.09626 65 4.6726 65H101.193C103.769 65 105.866 62.9037 105.866 60.3271V52.0125C114.998 51.0805 122.146 43.345 122.146 33.9713ZM31.6859 55.7299C32.7195 55.7299 33.5574 54.892 33.5574 53.8585V41.7687H40.31V53.8585C40.31 54.892 41.1479 55.7299 42.1814 55.7299C43.215 55.7299 44.0529 54.892 44.0529 53.8585V41.7687H50.8058V61.2569H23.0621V41.7687H29.8147V53.8585C29.8145 54.892 30.6524 55.7299 31.6859 55.7299ZM73.6677 55.7299C74.7013 55.7299 75.5392 54.892 75.5392 53.8585V41.7687H82.2921V61.2569H65.0439V41.7687H71.7963V53.8585C71.7963 54.892 72.6342 55.7299 73.6677 55.7299ZM92.7873 61.2569H86.035V41.7687H92.7873V61.2569ZM61.301 61.2569H54.5486V41.7687H61.301V61.2569ZM19.3192 61.2569H12.5663V41.7687H19.319V61.2569H19.3192ZM102.123 60.3269C102.123 60.8397 101.706 61.2569 101.193 61.2569H96.5302V39.8973C96.5302 38.8638 95.6923 38.0259 94.6588 38.0259H10.6949C9.66136 38.0259 8.82345 38.8638 8.82345 39.8973V61.2569H4.6726C4.15983 61.2569 3.74287 60.8397 3.74287 60.3269V34.3414C3.74287 33.8286 4.16008 33.4114 4.6726 33.4114H101.193C101.706 33.4114 102.123 33.8286 102.123 34.3414V60.3269H102.123ZM105.883 48.2424V46.5414C112.006 45.6339 116.719 40.3427 116.719 33.9713C116.719 26.9644 111.018 21.264 104.011 21.264H48.8163C43.9858 21.264 40.0557 17.334 40.0557 12.5034C40.0557 7.67289 43.9858 3.74287 48.8163 3.74287C49.2807 3.74287 49.6587 4.1209 49.6587 4.58527C49.6587 5.04963 49.2807 5.42767 48.8163 5.42767C44.9147 5.42767 41.7405 8.60187 41.7405 12.5034C41.7405 16.405 44.9147 19.5792 48.8163 19.5792H104.011C111.947 19.5792 118.404 26.0357 118.404 33.9713C118.404 41.2732 112.938 47.3224 105.883 48.2424Z" fill="#3A3A3A"/>
</svg>
