<svg width="78" height="70" viewBox="0 0 78 70" fill="none" xmlns="http://www.w3.org/2000/svg">
<path d="M75.0461 6.94504C73.6497 3.75611 71.6736 2 69.4823 2C67.5845 2 65.8488 3.31792 64.5107 5.74185C64.4287 5.82288 59.8655 14.0549 49.5835 14.0549H38.2383C24.4959 14.0549 13.3156 25.2352 13.3156 38.9778C13.3156 45.9222 16.1715 52.2111 20.7694 56.7348H15.1293C15.2162 56.5698 15.2659 56.3821 15.2659 56.1827C15.2659 55.5272 14.7346 54.9958 14.079 54.9958H11.389C11.389 54.9958 11.3889 54.9958 11.3887 54.9958C11.2536 54.9958 11.1202 55.0075 10.9883 55.0297C10.9999 54.9632 11.0072 54.8952 11.0072 54.8252C11.0072 54.1697 10.4759 53.6383 9.82029 53.6383H1.18688C0.53125 53.6383 0 54.1697 0 54.8252V57.4943C0 58.1498 0.53125 58.6812 1.18688 58.6812C1.67746 58.6812 2.07657 59.0801 2.07657 59.5707V60.324C2.07657 64.1355 3.87004 67.0098 6.24824 67.0098H9.93264C10.5883 67.0098 11.1195 66.4784 11.1195 65.8229C11.1195 65.7586 11.113 65.696 11.1031 65.6346C11.1972 65.6455 11.2922 65.6526 11.3887 65.6526H14.1638C14.8194 65.6526 15.3507 65.1212 15.3507 64.4657C15.3507 64.2662 15.301 64.0785 15.214 63.9134H37.9844C38.0433 63.9134 38.1007 63.9077 38.1574 63.8995C38.1843 63.8995 38.2112 63.9005 38.2381 63.9005C51.9805 63.9005 63.1608 52.7202 63.1608 38.9778C63.1608 34.115 61.7598 29.4033 59.1092 25.352C58.5671 24.5228 57.9771 23.7301 57.3441 22.9746C58.5634 23.5727 59.7163 24.3209 60.7951 25.2257C63.1643 27.2126 64.4349 29.4726 64.5149 29.5523C65.8525 31.9714 67.5866 33.2864 69.4823 33.2864C71.6738 33.2864 73.6497 31.5303 75.0461 28.3414C76.3063 25.4642 77.0002 21.6648 77.0002 17.6433C77.0002 13.6218 76.3063 9.82236 75.0461 6.94504ZM4.45034 60.3243V59.571C4.45034 58.1901 3.58819 57.0067 2.37377 56.531V56.0124H9.32369C9.11496 56.2482 8.92379 56.5209 8.7562 56.8295C8.23888 57.7825 7.95403 59.0236 7.95403 60.3241C7.95403 62.1371 8.48005 63.6835 9.32053 64.6362H6.24824C5.53247 64.6362 4.45034 62.9163 4.45034 60.3243ZM10.3278 60.3243C10.3278 59.4256 10.5155 58.5645 10.8424 57.9621C11.0831 57.519 11.3183 57.3699 11.3889 57.3699H13.5989C13.0678 57.9763 12.7652 58.9901 12.7652 60.3044C12.7652 61.6253 13.0804 62.6615 13.622 63.279H11.3889C11.1248 63.279 10.3278 62.2311 10.3278 60.3243ZM15.3061 61.5398C15.0905 60.979 15.0851 59.668 15.2963 59.1088H23.5631C24.8417 60.0432 26.2118 60.859 27.6577 61.5398H15.3061ZM53.2156 19.1782C53.1492 19.1614 53.0821 19.1497 53.0145 19.1445C51.9447 18.968 50.8029 18.8669 49.5858 18.8669C49.5858 18.8669 38.5101 18.8527 38.2381 18.8527C27.1411 18.8527 18.1128 27.8809 18.1128 38.9779C18.1128 50.0748 27.1411 59.1029 38.2381 59.1029C49.335 59.1029 58.3631 50.0748 58.3631 38.9779C58.3631 35.0514 57.2319 31.2466 55.0917 27.9747C53.2487 25.1575 50.7116 22.8312 47.7519 21.2407H49.5858C50.5578 21.2407 51.5018 21.3133 52.4196 21.4508C54.2509 22.9343 55.8339 24.6806 57.1227 26.6514C59.5199 30.3156 60.787 34.5779 60.787 38.9779C60.787 51.4114 50.6716 61.5268 38.2381 61.5268C25.8046 61.5268 15.6892 51.4114 15.6892 38.9778C15.6892 26.5441 25.8046 16.4287 38.2381 16.4287H49.5833C55.6826 16.4287 59.9189 13.9219 62.3983 11.819C62.4308 11.7915 62.462 11.7641 62.4939 11.7366C62.1474 13.5849 61.9643 15.5844 61.9643 17.6433C61.9643 19.7044 62.1477 21.7061 62.4952 23.5562C62.4646 23.5301 62.4349 23.504 62.4042 23.4777C60.4498 21.8203 57.4038 19.9131 53.2156 19.1782ZM54.9724 44.7942L45.4841 44.794C47.689 43.8 49.2279 41.5794 49.2279 39.0058C49.2279 36.429 47.6813 34.2081 45.4681 33.2185L55.0317 33.2159C55.6625 35.0562 55.9893 36.999 55.9893 38.9776C55.9893 41.0146 55.6434 42.9722 55.0089 44.7959C54.9966 44.7956 54.9846 44.7942 54.9724 44.7942ZM30.3793 30.8491C29.2235 30.8491 28.2833 31.7892 28.2833 32.9448C28.2833 34.1005 29.2235 35.0408 30.3793 35.0408L42.891 35.0424C45.0765 35.0424 46.8543 36.8203 46.8543 39.0058C46.8543 41.195 45.0765 42.976 42.891 42.976H30.3437C29.188 42.976 28.248 43.9162 28.248 45.0717C28.248 46.2274 29.1882 47.1678 30.3437 47.1678L53.9833 47.1679C53.6436 47.8183 53.2647 48.445 52.8499 49.0453C52.8013 49.0392 30.3437 49.0351 30.3437 49.0351C28.1584 49.0351 26.3808 47.2572 26.3808 45.0717C26.3808 42.8864 28.1584 41.1086 30.3444 41.1086L42.891 41.1017C44.0469 41.1017 44.9871 40.1615 44.9871 39.006C44.9871 37.8501 44.0469 36.9098 42.891 36.9098L30.3437 36.9039C28.1584 36.9039 26.3808 35.1259 26.3808 32.9405C26.3808 30.7514 28.1584 28.9703 30.3437 28.9703H52.6258C52.7135 28.9703 52.7987 28.9602 52.8806 28.9421C52.9563 29.0521 53.0322 29.1621 53.1053 29.274C53.4381 29.7826 53.7415 30.3066 54.0183 30.8424L30.3793 30.8491ZM30.3436 26.5965C26.8496 26.5965 24.0069 29.4424 24.0069 32.9405C24.0069 35.7976 25.9076 38.218 28.5106 39.0063C25.9076 39.7944 24.0069 42.2148 24.0069 45.0719C24.0069 48.5662 26.8496 51.4091 30.3436 51.4091H50.8965C47.6735 54.6902 43.1898 56.7291 38.2381 56.7291C28.4498 56.7291 20.4866 48.7659 20.4866 38.9779C20.4866 29.1896 28.4498 21.2264 38.2381 21.2264C41.1408 21.2264 44.0195 21.9419 46.5634 23.2959C48.1905 24.1615 49.6735 25.2797 50.9565 26.5968L30.3436 26.5965ZM72.8716 27.3892C71.9054 29.5955 70.6383 30.9127 69.4821 30.9127C68.326 30.9127 67.0588 29.5955 66.0927 27.3892C65.9373 27.0339 65.7924 26.6608 65.6562 26.2742C66.2275 26.7181 66.8574 26.9526 67.5239 26.9526C68.9743 26.9526 70.2538 25.8553 71.1264 23.8629C71.8626 22.1819 72.268 19.9731 72.268 17.6435C72.268 15.3137 71.8627 13.1048 71.1264 11.4239C70.2538 9.43148 68.9743 8.33417 67.5239 8.33417C66.8574 8.33417 66.2277 8.56854 65.6562 9.01259C65.7922 8.62582 65.9372 8.25267 66.0927 7.89739C67.0588 5.69121 68.326 4.37393 69.4821 4.37393C70.6383 4.37393 71.9054 5.69105 72.8716 7.89739C74.0031 10.481 74.6263 13.9423 74.6263 17.6433C74.6263 21.3443 74.0032 24.8056 72.8716 27.3892Z" fill="#3A3A3A"/>
</svg>
