<svg width="70" height="69" viewBox="0 0 70 69" fill="none" xmlns="http://www.w3.org/2000/svg">
<path d="M69.6026 0.403079C69.0836 -0.123147 68.2542 -0.135824 67.7506 0.375033L50.1894 18.7573C45.6115 17.8205 40.4238 17.3219 35.0312 17.3219C31.2717 17.3219 27.6126 17.5648 24.1896 18.0289L2.07041 1.63474C1.48864 1.21753 0.673473 1.3725 0.249797 1.98017C-0.173878 2.58832 -0.0456193 3.41926 0.535997 3.83647L21.5906 18.4322C18.5516 18.965 15.7438 19.6816 13.2766 20.5675C7.06657 22.7973 3.6467 25.9194 3.6467 29.3588V56.2165C3.6467 59.6559 7.06672 62.7781 13.2766 65.0079C19.1054 67.1007 26.8314 68.2535 35.0312 68.2535C43.231 68.2535 50.957 67.1009 56.7858 65.0079C62.9956 62.7781 66.4157 59.6559 66.4157 56.2165V29.3588C66.4157 25.9194 62.9956 22.7973 56.7858 20.5675C55.4123 20.0744 53.9324 19.634 52.3669 19.248L69.6302 2.28155C70.1339 1.7707 70.1216 0.929623 69.6026 0.403079ZM35.0312 19.6987C39.6957 19.6987 44.1899 20.0802 48.2368 20.8012L46.9197 22.1798C43.1936 21.488 39.0716 21.133 35.0312 21.133C32.9404 21.133 30.8279 21.2284 28.7593 21.4159L26.9732 20.0921C29.561 19.8331 32.266 19.6987 35.0312 19.6987ZM37.4133 33.0521C37.9878 33.635 38.9825 33.571 39.6347 32.9096C40.0893 32.4484 40.2567 31.8188 40.1225 31.2822L46.9341 24.5878C48.7608 24.9461 50.4611 25.3877 51.9857 25.911C55.9822 27.2826 58.368 29.0852 58.368 30.7331C58.368 32.381 55.9822 34.1836 51.9857 35.5552C47.4745 37.1035 41.4533 37.9561 35.0312 37.9561C28.609 37.9561 22.5877 37.1035 18.0765 35.5552C14.08 34.1836 11.6942 32.381 11.6942 30.7331C11.6942 29.0854 14.08 27.2826 18.0765 25.911C21.2017 24.8385 25.0523 24.1004 29.2581 23.7478L34.4577 27.3523C34.4149 27.9042 34.6848 28.4959 35.2099 28.8725C35.9632 29.4124 36.9541 29.3047 37.4231 28.6317C37.8922 27.9586 37.6618 26.9752 36.9085 26.4352C36.3834 26.0587 35.7434 25.9979 35.2446 26.223L31.6918 23.5898C32.7889 23.538 33.9032 23.5103 35.0312 23.5103C38.5159 23.5103 41.88 23.7634 44.9515 24.2405L39.1583 30.3043C38.629 30.1681 38.0083 30.3379 37.5537 30.799C36.9016 31.4604 36.8385 32.4691 37.4133 33.0521ZM33.7055 41.3849V65.8657C29.5857 65.8016 25.6221 65.4386 22.0091 64.8063V40.3578C25.6475 40.9713 29.6065 41.3225 33.7055 41.3849ZM36.0488 41.389C40.1418 41.3412 44.1002 41.0055 47.7452 40.4086V64.8602C44.1252 65.475 40.1617 65.8207 36.0488 65.8699V41.389ZM14.0586 22.808C17.0482 21.7345 20.5725 20.9196 24.4202 20.3938L26.2858 21.6871C17.0823 22.8781 9.35101 25.9667 9.35101 30.733C9.35101 32.3392 10.2309 33.7544 11.7473 34.9713C8.10107 33.2982 5.99004 31.2723 5.99004 29.359C5.99004 27.0711 9.00622 24.6222 14.0586 22.808ZM5.99004 56.2165V34.0729C6.52104 34.575 7.13827 35.0607 7.84127 35.5265V59.4257C6.64039 58.3743 5.99004 57.2782 5.99004 56.2165ZM10.1823 61.0369C10.1829 61.021 10.1846 61.0053 10.1846 60.9893V36.855C11.1218 37.3136 12.1529 37.7466 13.2766 38.15C15.2139 38.8457 17.3616 39.4367 19.6658 39.9166V64.3478C17.6488 63.9088 15.7661 63.3804 14.0585 62.7673C12.5843 62.2381 11.2854 61.6545 10.1823 61.0369ZM56.0037 62.7673C54.2095 63.4116 52.2221 63.9622 50.0885 64.4137V39.9807C52.5098 39.4896 54.7622 38.8767 56.7858 38.15C57.7876 37.7902 58.7158 37.4071 59.5697 37.0033V61.2069C58.5355 61.7616 57.3419 62.2869 56.0037 62.7673ZM61.913 59.6851V35.7251C62.7441 35.1988 63.4652 34.6468 64.0723 34.0729V56.2167C64.0723 57.3656 63.3109 58.5555 61.913 59.6851ZM56.0037 22.808C61.056 24.6222 64.0723 27.0711 64.0723 29.3588C64.0723 31.2722 61.9613 33.298 58.3151 34.9711C59.8315 33.7544 60.7113 32.3392 60.7113 30.7328C60.7113 26.8977 55.7054 24.1492 48.9551 22.6011L50.3608 21.2197C52.3914 21.6602 54.2861 22.1913 56.0037 22.808Z" fill="#3A3A3A"/>
</svg>
