<svg width="268" height="224" viewBox="0 0 268 224" fill="none" xmlns="http://www.w3.org/2000/svg">
<path d="M261.537 5.53759C260.367 4.69734 258.843 4.52772 257.516 5.09103L250.011 8.12901L31.2446 96.4038L4.44043 107.528L85.4336 140.318H85.5231V140.363L106.252 212.778L107.19 215.995C107.627 217.518 108.836 218.695 110.37 219.091C111.904 219.485 113.533 219.039 114.65 217.916L156.063 175.566L159.771 171.769L216.462 194.061L220.661 195.713C223.17 196.739 226.012 196.554 228.367 195.211C230.722 193.867 232.328 191.516 232.723 188.834L263.458 10.1838C263.854 8.38553 263.087 6.53123 261.537 5.53759ZM130.42 159.483L130.554 159.528L130.331 159.796L130.42 159.483Z" fill="#887D76"/>
<path d="M261.537 5.53759C260.367 4.69734 258.843 4.52772 257.516 5.09103L250.011 8.12901L31.2446 96.4038L4.44043 107.528L85.4336 140.318H85.5231V140.363L106.252 212.778L107.19 215.995C107.627 217.518 108.836 218.695 110.37 219.091C111.904 219.485 113.533 219.039 114.65 217.916L156.063 175.566L159.771 171.769L216.462 194.061L220.661 195.713C223.17 196.739 226.012 196.554 228.367 195.211C230.722 193.867 232.328 191.516 232.723 188.834L263.458 10.1838C263.854 8.38553 263.087 6.53123 261.537 5.53759ZM130.42 159.483L130.554 159.528L130.331 159.796L130.42 159.483Z" fill="black" fill-opacity="0.3"/>
<path d="M250.011 8.12842L31.2446 96.4037L4.44043 107.527L85.4336 140.318H85.5231V140.363L106.252 212.778L146.369 171.768L156.063 175.565L159.771 171.768L216.462 194.06C218.003 192.711 219.016 190.859 219.32 188.833L250.056 10.1832C250.199 9.50423 250.183 8.80114 250.011 8.12842ZM116.928 159.796L117.018 159.483L117.152 159.528L116.928 159.796Z" fill="#887D76"/>
<path d="M159.771 171.768L114.65 217.916C115.177 217.344 115.559 216.655 115.767 215.906L130.331 159.795L130.554 159.527L149.943 167.658L158.61 171.321L159.771 171.768Z" fill="#887D76"/>
<path d="M159.771 171.768L114.65 217.916C115.177 217.344 115.559 216.655 115.767 215.906L130.331 159.795L130.554 159.527L149.943 167.658L158.61 171.321L159.771 171.768Z" fill="black" fill-opacity="0.4"/>
<path d="M261.868 5.77881L130.554 159.528L130.42 159.483L130.331 159.796L115.767 215.906C115.559 216.655 115.176 217.344 114.65 217.916C113.532 219.039 111.904 219.486 110.37 219.09C108.836 218.696 107.626 217.518 107.19 215.995L85.523 140.363V140.318H85.4785V140.274L261.868 5.77881Z" fill="#887D76"/>
<path d="M261.868 5.77881L130.554 159.528L130.42 159.483L130.331 159.796L115.767 215.906C115.559 216.655 115.176 217.344 114.65 217.916C113.532 219.039 111.904 219.486 110.37 219.09C108.836 218.696 107.626 217.518 107.19 215.995L85.523 140.363V140.318H85.4785V140.274L261.868 5.77881Z" fill="black" fill-opacity="0.25"/>
<path d="M90.6605 141.993L199.217 61.1343C200.605 60.2229 201.373 58.6178 201.211 56.9655C201.049 55.3133 199.985 53.8872 198.447 53.2622C196.91 52.6371 195.152 52.9161 193.883 53.9867L84.7682 135.225L6.11575 103.387C3.83321 102.481 1.24807 103.588 0.327198 105.864C-0.593673 108.14 0.495247 110.733 2.76523 111.669L81.8376 143.665L102.923 217.278C104.021 221.08 107.507 223.693 111.465 223.679H111.568C113.725 223.64 115.793 222.809 117.375 221.343C117.531 221.249 117.68 221.144 117.822 221.03L161.003 176.874L218.9 199.832C222.621 201.413 226.865 201.175 230.386 199.189C234.014 197.177 236.501 193.593 237.118 189.49L251.731 91.7623L267.814 11.077C268.483 7.83744 267.317 4.49267 264.78 2.37032C262.282 0.287764 258.842 -0.254077 255.823 0.958393L29.5694 92.2806C27.2811 93.2056 26.176 95.8112 27.101 98.0995C28.0261 100.388 30.6316 101.493 32.9199 100.568L249.06 13.3559L141.843 139.809C140.248 141.692 140.481 144.511 142.364 146.106C144.246 147.701 147.065 147.468 148.661 145.586L257.499 17.2111L242.953 90.2258L228.3 188.137C228.099 189.507 227.274 190.707 226.066 191.385C224.908 192.031 223.513 192.096 222.3 191.559L161.378 167.605L132.144 155.365C129.869 154.41 127.251 155.48 126.296 157.755C126.199 158.061 126.136 158.377 126.109 158.697H126.002L111.487 214.745L90.6605 141.993ZM133.44 165.603L148.209 171.804L152.015 173.314L124.009 201.954L133.44 165.603Z" fill="#3A3A3A"/>
</svg>
