<svg width="27" height="27" viewBox="0 0 27 27" fill="none" xmlns="http://www.w3.org/2000/svg">
<path d="M23.0449 0H3.95508C1.77443 0 0 1.77443 0 3.95508V23.0449C0 25.2256 1.77443 27 3.95508 27H23.0449C25.2256 27 27 25.2256 27 23.0449V3.95508C27 1.77443 25.2256 0 23.0449 0ZM13.5527 20.5664C9.62711 20.5664 6.43359 17.3729 6.43359 13.4473C6.43359 9.52164 9.62711 6.32812 13.5527 6.32812C17.4784 6.32812 20.6719 9.52164 20.6719 13.4473C20.6719 17.3729 17.4784 20.5664 13.5527 20.5664ZM21.4629 7.91016C20.1544 7.91016 19.0898 6.84558 19.0898 5.53711C19.0898 4.22864 20.1544 3.16406 21.4629 3.16406C22.7714 3.16406 23.8359 4.22864 23.8359 5.53711C23.8359 6.84558 22.7714 7.91016 21.4629 7.91016Z" fill="#3A3A3A"/>
<path d="M21.4629 4.74609C21.0264 4.74609 20.6719 5.10061 20.6719 5.53711C20.6719 5.97361 21.0264 6.32812 21.4629 6.32812C21.8994 6.32812 22.2539 5.97361 22.2539 5.53711C22.2539 5.10061 21.8994 4.74609 21.4629 4.74609Z" fill="#3A3A3A"/>
<path d="M13.5527 7.91028C10.4999 7.91028 8.01562 10.3946 8.01562 13.4474C8.01562 16.5002 10.4999 18.9845 13.5527 18.9845C16.6056 18.9845 19.0898 16.5002 19.0898 13.4474C19.0898 10.3946 16.6056 7.91028 13.5527 7.91028Z" fill="#3A3A3A"/>
</svg>
