<svg width="28" height="27" viewBox="0 0 28 27" fill="none" xmlns="http://www.w3.org/2000/svg">
<g clip-path="url(#clip0)">
<path d="M23.3506 0H4.26074C2.08009 0 0.305664 1.77443 0.305664 3.95508V23.0449C0.305664 25.2256 2.08009 27 4.26074 27H23.3506C25.5312 27 27.3057 25.2256 27.3057 23.0449V3.95508C27.3057 1.77443 25.5312 0 23.3506 0ZM9.85059 21.4102H6.68652V10.3359H9.85059V21.4102ZM9.85059 8.75391H6.68652V5.58984H9.85059V8.75391ZM20.9248 21.4102H17.7607V15.082C17.7607 14.2099 17.0509 13.5 16.1787 13.5C15.3065 13.5 14.5967 14.2099 14.5967 15.082V21.4102H11.4326V10.3359H14.5967V10.9323C15.4256 10.6746 15.9641 10.3359 16.9697 10.3359C19.1156 10.3382 20.9248 12.2632 20.9248 14.5382V21.4102Z" fill="#3A3A3A"/>
</g>
<defs>
<clipPath id="clip0">
<rect x="0.305664" width="27" height="27" fill="white"/>
</clipPath>
</defs>
</svg>
