<svg width="76" height="76" viewBox="0 0 76 76" fill="none" xmlns="http://www.w3.org/2000/svg">
<path d="M76 38C76 17.0132 58.9868 0 38 0C17.0132 0 0 17.0132 0 38C0 58.9868 17.0132 76 38 76C58.9868 76 76 58.9868 76 38Z" fill="white" fill-opacity="0.5"/>
<path d="M59.4833 19H17.1389C14.3053 19 12 21.3575 12 24.2552V51.5825C12 54.4803 14.3053 56.8377 17.1389 56.8377H59.4833C62.3169 56.8377 64.6222 54.4803 64.6222 51.5825V24.2552C64.6222 21.3575 62.3169 19 59.4833 19ZM62.5667 51.5825C62.5667 53.3213 61.1836 54.7357 59.4833 54.7357H17.1389C15.4386 54.7357 14.0556 53.3213 14.0556 51.5825V49.4804H62.5667V51.5825ZM62.5667 47.3783H14.0556V41.072H62.5667V47.3783ZM62.5667 38.9699H14.0556V24.2552C14.0556 22.5165 15.4386 21.1021 17.1389 21.1021H59.4833C61.1836 21.1021 62.5667 22.5165 62.5667 24.2552V38.9699Z" fill="#887D76" stroke="#887D76" stroke-width="1.2"/>
<path d="M30.8232 23.3809C30.3491 22.9664 29.636 23.0241 29.2317 23.5082L19.5707 35.0697C19.167 35.5522 19.2224 36.2781 19.6952 36.6909C19.9074 36.8764 20.1686 36.9677 20.4282 36.9677C20.7473 36.9677 21.064 36.8304 21.2867 36.5635L30.9477 25.002C31.3513 24.5192 31.296 23.7938 30.8232 23.3809Z" fill="#887D76" stroke="#887D76" stroke-width="0.2"/>
<path d="M23.3053 26.3573C23.3053 24.6185 21.9223 23.2041 20.222 23.2041C18.5218 23.2041 17.1387 24.6185 17.1387 26.3573C17.1387 28.096 18.5218 29.5104 20.222 29.5104C21.9223 29.5104 23.3053 28.096 23.3053 26.3573ZM19.1942 26.3573C19.1942 25.7775 19.6551 25.3062 20.222 25.3062C20.7889 25.3062 21.2498 25.7775 21.2498 26.3573C21.2498 26.937 20.7889 27.4083 20.222 27.4083C19.6551 27.4083 19.1942 26.937 19.1942 26.3573Z" fill="#887D76"/>
<path d="M30.3968 30.5615C28.6966 30.5615 27.3135 31.9759 27.3135 33.7147C27.3135 35.4534 28.6966 36.8678 30.3968 36.8678C32.0971 36.8678 33.4801 35.4534 33.4801 33.7147C33.4801 31.9759 32.0971 30.5615 30.3968 30.5615ZM30.3968 34.7657C29.8299 34.7657 29.369 34.2944 29.369 33.7147C29.369 33.135 29.8299 32.6636 30.3968 32.6636C30.9637 32.6636 31.4246 33.135 31.4246 33.7147C31.4246 34.2944 30.9637 34.7657 30.3968 34.7657Z" fill="#887D76"/>
</svg>
