<svg width="76" height="76" viewBox="0 0 76 76" fill="none" xmlns="http://www.w3.org/2000/svg">
<path d="M76 38C76 17.0132 58.9868 0 38 0C17.0132 0 0 17.0132 0 38C0 58.9868 17.0132 76 38 76C58.9868 76 76 58.9868 76 38Z" fill="white" fill-opacity="0.5"/>
<path d="M49.45 37.2205C45.565 37.2205 42.31 33.9992 42.31 29.9189C42.31 23.3689 37.06 18 30.655 18C24.25 18 19 23.3689 19 29.9189V53.1124C19 53.4345 19.315 53.7566 19.63 53.7566H22.675C22.675 54.0788 22.99 54.4009 23.305 54.4009H32.545V57.0853C32.545 57.4075 32.86 57.7296 33.175 57.7296H43.57C43.885 57.7296 44.2 57.4075 44.2 57.0853V54.4009H53.44C53.755 54.4009 54.07 54.0788 54.07 53.7566H57.115C57.43 53.7566 57.745 53.4345 57.745 53.1124V45.8107C57.85 41.0861 54.07 37.2205 49.45 37.2205ZM42.94 56.4411H33.91V54.5083H42.94V56.4411ZM43.78 51.8239H45.04V49.1394H47.665V51.8239H48.925V49.1394H50.185V51.8239H51.445V49.1394H52.705V53.1124H24.04V49.1394H25.3V51.8239H26.56V49.1394H27.925V51.8239H29.185V49.1394H30.445V51.8239H31.705V49.1394H33.175V51.8239H34.435V49.1394H35.695V51.8239H36.955V49.1394H39.58V51.8239H40.84V49.1394H42.1V51.8239H43.36H43.78ZM56.59 52.4681H54.175V48.4952C54.175 48.173 53.86 47.8509 53.545 47.8509H23.41C23.095 47.8509 22.78 48.173 22.78 48.4952V52.4681H20.26V29.9189C20.26 24.1205 24.88 19.2885 30.655 19.2885C36.43 19.2885 41.05 24.0131 41.05 29.9189C41.05 34.6435 44.83 38.5091 49.45 38.5091C53.335 38.5091 56.59 41.7304 56.59 45.8107V52.4681Z" fill="#887D76" stroke="#887D76" stroke-width="0.75" stroke-miterlimit="10"/>
</svg>
