<svg width="55" height="55" viewBox="0 0 55 55" fill="none" xmlns="http://www.w3.org/2000/svg">
<path d="M55 27.5C55 12.3122 42.6878 0 27.5 0C12.3122 0 0 12.3122 0 27.5C0 42.6878 12.3122 55 27.5 55C42.6878 55 55 42.6878 55 27.5Z" fill="white" fill-opacity="0.5"/>
<path d="M27.5 41.6162C28.8214 41.6162 29.8926 40.545 29.8926 39.2236C29.8926 37.9022 28.8214 36.8311 27.5 36.8311C26.1786 36.8311 25.1074 37.9022 25.1074 39.2236C25.1074 40.545 26.1786 41.6162 27.5 41.6162Z" fill="#887D76"/>
<path d="M27.5 3C13.9595 3 3 13.9577 3 27.5C3 41.0405 13.9577 52 27.5 52C41.0405 52 52 41.0423 52 27.5C52 13.9595 41.0423 3 27.5 3ZM27.5 48.1719C16.0752 48.1719 6.82813 38.9263 6.82813 27.5C6.82813 16.0752 16.0737 6.82813 27.5 6.82813C38.9248 6.82813 48.1719 16.0737 48.1719 27.5C48.1719 38.9248 38.9263 48.1719 27.5 48.1719Z" fill="#887D76"/>
<path d="M27.5 15.2979C23.2783 15.2979 19.8438 18.7324 19.8438 22.9541C19.8438 24.0112 20.7006 24.8682 21.7577 24.8682C22.8148 24.8682 23.6719 24.0112 23.6719 22.9541C23.6719 20.8433 25.3892 19.126 27.5 19.126C29.6108 19.126 31.3281 20.8433 31.3281 22.9541C31.3281 25.0649 29.6108 26.7822 27.5 26.7822C26.4429 26.7822 25.5858 27.6392 25.5858 28.6963V33.4813C25.5858 34.5385 26.4429 35.3955 27.5 35.3955C28.5571 35.3955 29.4141 34.5385 29.4141 33.4813V30.3681C32.7126 29.5161 35.1562 26.5151 35.1562 22.9541C35.1562 18.7324 31.7217 15.2979 27.5 15.2979Z" fill="#887D76"/>
</svg>
