<svg width="76" height="76" viewBox="0 0 76 76" fill="none" xmlns="http://www.w3.org/2000/svg">
<path d="M76 38C76 17.0132 58.9868 0 38 0C17.0132 0 0 17.0132 0 38C0 58.9868 17.0132 76 38 76C58.9868 76 76 58.9868 76 38Z" fill="white" fill-opacity="0.5"/>
<path d="M28.2588 28.8097V28.8098C28.2589 29.5506 28.8483 30.1697 29.5997 30.1697H48.0997C48.8512 30.1697 49.4406 29.5506 49.4406 28.8097C49.4406 28.0688 48.8512 27.4497 48.0997 27.4497H29.5997C28.8483 27.4497 28.2588 28.0688 28.2588 28.8097Z" fill="#887D76" stroke="#887D76"/>
<path d="M39.6906 37.769H29.5997C28.8483 37.769 28.2588 38.3881 28.2588 39.1289C28.2588 39.8698 28.8483 40.4889 29.5997 40.4889H39.6906C40.4421 40.4889 41.0315 39.8698 41.0315 39.1289C41.0315 38.3881 40.4421 37.769 39.6906 37.769Z" fill="#887D76" stroke="#887D76"/>
<path d="M44.9708 40.315L44.9696 40.3152C44.8943 40.3303 44.8154 40.3388 44.7364 40.3388C44.422 40.3388 44.1167 40.2118 43.8916 39.9816C43.612 39.6958 43.4906 39.2875 43.5683 38.893L44.9708 40.315ZM44.9708 40.315L49.1737 39.455C49.406 39.4074 49.6185 39.292 49.7844 39.1213C49.7846 39.1211 49.7848 39.1209 49.785 39.1207L55.3181 33.4631V45.1484C55.3181 45.9108 54.7135 46.5183 53.9863 46.5183H29.6C29.2811 46.5183 28.9777 46.6479 28.7551 46.8755L22.3818 53.3933V22.7898C22.3818 22.0275 22.9864 21.4199 23.7136 21.4199H53.9863C54.7136 21.4199 55.3181 22.0275 55.3181 22.7898V23.2001L44.9708 40.315ZM44.2943 35.1791H29.6C28.9345 35.1791 28.409 34.6304 28.409 33.9692C28.409 33.308 28.9345 32.7592 29.6 32.7592H45.9213L54.9677 23.5094C54.9677 23.5094 54.9677 23.5093 54.9677 23.5093L54.9679 23.5091L55.2181 23.7539L44.2943 35.1791ZM44.2943 35.1791L43.5685 38.8922L44.2943 35.1791ZM58.6817 26.0818V26.0818C58.6817 25.401 58.1413 24.8597 57.4944 24.8597C57.1842 24.8597 56.8782 24.9887 56.6574 25.2138L58.6817 26.0818ZM58.6817 26.0818C58.6818 26.4046 58.5526 26.7223 58.3311 26.9493L57.3499 27.9528L55.6645 26.2291L56.657 25.2141L58.6817 26.0818ZM57.6847 22.4449C57.5137 20.5217 55.9266 19 53.9863 19H23.7137C21.6588 19 20 20.7068 20 22.7898V56.3278C20 56.8117 20.2853 57.2544 20.7307 57.4437C20.8801 57.508 21.0374 57.5377 21.1909 57.5377C21.5027 57.5377 21.8083 57.413 22.0357 57.1805L30.0955 48.9382H53.9863C56.0412 48.9382 57.7 47.2315 57.7 45.1484V31.0277L60.0211 28.6544L59.7709 28.4097H59.7717L60.0211 28.6536C60.6853 27.9743 61.0636 27.0379 61.0636 26.0818C61.0636 24.145 59.5718 22.5462 57.6847 22.4449ZM55.6712 29.6693L48.3501 37.1556L46.2531 37.5847L46.6759 35.4214L53.9859 27.9458L55.6712 29.6693Z" fill="#887D76" stroke="#887D76" stroke-width="0.7"/>
</svg>
