<svg width="40" height="40" viewBox="0 0 40 40" fill="none" xmlns="http://www.w3.org/2000/svg">
<rect width="40" height="40" rx="20" fill="white" fill-opacity="0.5"/>
<path d="M36.0187 13.3609C34.1953 9.10735 31.0934 6.01085 26.8074 4.18189L26.753 4.30953L26.8074 4.18189C24.6643 3.26739 22.4181 2.8 20.0719 2.8C17.7262 2.8 15.4961 3.26301 13.3551 4.18205C9.1046 6.00614 5.98918 9.10048 4.1625 13.3609C3.24634 15.4972 2.8 17.7353 2.8 20.0812C2.8 22.4273 3.24626 24.6838 4.1625 26.8208L4.34632 26.742L4.1625 26.8208C5.98902 31.0808 9.1046 34.1937 13.3551 36.0184L13.4312 35.8411L13.3551 36.0184C15.4965 36.9374 17.7261 37.4 20.0719 37.4C22.4177 37.4 24.6643 36.9326 26.8071 36.0186L26.8071 36.0186C31.0935 34.1894 34.1951 31.0735 36.0188 26.8208L35.8405 26.7444L36.0188 26.8208C36.9373 24.678 37.4 22.4284 37.4 20.0812C37.4 17.7343 36.9377 15.5034 36.0187 13.3609ZM36.0187 13.3609L35.8349 13.4397L36.0187 13.3609C36.0187 13.3609 36.0187 13.3609 36.0187 13.3609ZM27.507 32.9489L27.507 32.949C25.2359 34.2739 22.7484 34.9421 20.0723 34.9421C18.0608 34.9421 16.1433 34.5547 14.3179 33.7613L14.3179 33.7613C12.4871 32.966 10.9102 31.9222 9.59267 30.6043C8.27524 29.2861 7.22461 27.6931 6.43778 25.8585L6.43776 25.8584C5.65558 24.036 5.27597 22.0952 5.27597 20.0813C5.27597 17.4027 5.93327 14.9266 7.24988 12.6609L7.24988 12.6609C8.5718 10.3859 10.3862 8.58131 12.6567 7.25132L12.6567 7.25131C14.9248 5.92254 17.3958 5.25794 20.0719 5.25794C22.7484 5.25794 25.2355 5.92652 27.5066 7.25149L27.6073 7.07874L27.5066 7.2515C29.7931 8.58536 31.6033 10.3899 32.9321 12.6614L32.9321 12.6614C34.2602 14.9312 34.9241 17.4032 34.9241 20.0812C34.9241 22.7597 34.2644 25.2529 32.9324 27.5393C31.6077 29.8124 29.7937 31.615 27.507 32.9489Z" fill="#887D76" stroke="#887D76" stroke-width="0.4"/>
<path d="M19.1377 21.3222L19.1375 21.3221C18.8471 21.0311 18.7246 20.665 18.7666 20.2435C18.7664 20.2429 18.7663 20.2422 18.7661 20.2415C18.7642 20.2334 18.7612 20.2233 18.7569 20.2103L18.7501 20.1906L18.7426 20.1686C18.7402 20.1614 18.7368 20.1511 18.734 20.1401L18.7339 20.14C18.732 20.1325 18.7258 20.1085 18.7258 20.0793V9.1509C18.7258 8.39642 19.3557 7.78743 20.0685 7.78743C20.8138 7.78743 21.4736 8.38742 21.4736 9.1509V19.8307L27.2331 25.6314C27.7529 26.1549 27.7923 26.9744 27.2327 27.5342L19.1377 21.3222ZM19.1377 21.3222L25.3501 27.5342M19.1377 21.3222L25.3501 27.5342M25.3501 27.5342C25.6014 27.7855 25.9514 27.9046 26.2915 27.9046M25.3501 27.5342L26.2915 27.9046M26.2915 27.9046C26.6315 27.9046 26.9815 27.7855 27.2326 27.5342L26.2915 27.9046Z" fill="#887D76" stroke="#887D76" stroke-width="0.4"/>
</svg>
