<svg width="40" height="40" viewBox="0 0 40 40" fill="none" xmlns="http://www.w3.org/2000/svg">
<rect width="40" height="40" rx="20" fill="white" fill-opacity="0.5"/>
<path d="M19.8649 5C13.8739 5 9 9.87394 9 15.8648C9 23.2996 18.723 34.2144 19.137 34.6754C19.5258 35.1085 20.2046 35.1078 20.5928 34.6754C21.0067 34.2144 30.7297 23.2996 30.7297 15.8648C30.7296 9.87394 25.8557 5 19.8649 5ZM19.8649 21.3312C16.8507 21.3312 14.3985 18.879 14.3985 15.8648C14.3985 12.8506 16.8507 10.3985 19.8649 10.3985C22.879 10.3985 25.3311 12.8507 25.3311 15.8649C25.3311 18.879 22.879 21.3312 19.8649 21.3312Z" fill="#887D76"/>
</svg>
