<svg id="Слой_2" data-name="Слой 2" xmlns="http://www.w3.org/2000/svg" viewBox="0 0 73.7 73.7"><defs><style>.cls-1{fill:#fff;}</style></defs><title>Монтажная область 10</title><path class="cls-1" d="M49.73,15.55l10.89,6.27a5.66,5.66,0,0,1,2.82,4.89V37.64a4.74,4.74,0,0,1-4.85,4.69h-.05C52,42.33,43.59,44.86,43.3,54.2,43,62.91,52,66.07,58.54,66.07s13.68-4.95,13.68-11.5V19.94a5.63,5.63,0,0,0-2.76-4.86L49.81,3.4a5.67,5.67,0,0,0-5.74,0L24.45,14.86a5.66,5.66,0,0,0-2.79,4.88V43.41a4.75,4.75,0,0,1-4.89,4.7h-.05C10.16,48.11,1.77,50.65,1.48,60c-.27,8.71,8.68,11.87,15.24,11.87S30.4,66.91,30.4,60.35V26.57a5.64,5.64,0,0,1,2.88-4.92l10.86-6.13A5.63,5.63,0,0,1,49.73,15.55Z"/><path class="cls-1" d="M67,9.63V2.74a.63.63,0,0,0-.63-.63H58.82a.63.63,0,0,0-.64.63V5.43a.63.63,0,0,0,.33.56l7.57,4.2A.63.63,0,0,0,67,9.63Z"/><rect class="cls-1" x="41.57" y="24.27" width="5.01" height="4.78" rx="0.73"/><rect class="cls-1" x="47.59" y="24.27" width="5.01" height="4.78" rx="0.73"/><rect class="cls-1" x="41.57" y="30.05" width="5.01" height="4.78" rx="0.73"/><rect class="cls-1" x="47.59" y="30.05" width="5.01" height="4.78" rx="0.73"/></svg>